<svg viewBox="240 220 540 550" xmlns="http://www.w3.org/2000/svg">
    <path
        d="M0 0 C5.09465096 1.9924625 9.14431945 5.52496485 13.3671875 8.92578125 C15.40657055 10.49126067 17.44833902 12.05363628 19.4921875 13.61328125 C20.59178134 14.4614163 21.69071846 15.31040333 22.7890625 16.16015625 C26.04748691 18.67985818 29.30888647 21.1955842 32.57836914 23.70092773 C34.02460514 24.81199858 35.46649924 25.92874337 36.90405273 27.05102539 C40.36846599 29.73548606 43.82234376 32.26183604 47.57421875 34.53125 C57.27327828 40.54703339 60.1767466 45.7843352 62.93359375 56.7421875 C66.70489738 71.46008546 74.87932287 85.18565717 84.3671875 96.92578125 C84.82270996 97.49264648 85.27823242 98.05951172 85.74755859 98.64355469 C106.45852337 124.20115726 132.93667763 142.60276289 165.3671875 149.92578125 C167.78029758 150.15454704 170.1973649 150.34724016 172.6171875 150.48828125 C181.47946684 151.48919751 187.12933701 157.58102928 193.515625 163.30419922 C196.07426012 165.54502918 198.7482455 167.54025992 201.4921875 169.55078125 C206.30411209 173.11445121 211.02702392 176.77229671 215.72607422 180.48217773 C219.88903713 183.7676812 224.06853649 187.03096251 228.25830078 190.28222656 C231.3015607 192.64451692 234.34013094 195.01280474 237.37890625 197.38085938 C239.08882402 198.709489 240.80548829 200.0294279 242.5234375 201.34765625 C255.75332012 211.62870961 255.75332012 211.62870961 256.8046875 218.98828125 C255.50992409 230.64115197 243.87971659 238.0549542 235.3671875 244.92578125 C220.7527315 256.61216362 220.7527315 256.61216362 213.265625 256.515625 C207.86307124 255.41618347 204.09246827 251.76064326 199.96777344 248.26855469 C197.83767957 246.48156319 195.64773953 244.77784711 193.45361328 243.07055664 C191.68982331 241.69751786 189.93404978 240.31474776 188.1796875 238.9296875 C176.83809537 229.98750647 165.41046912 221.17574876 153.83618164 212.53662109 C147.47791963 207.78193975 141.19539122 202.93757128 134.9387207 198.05029297 C127.12696755 191.94899847 119.25172467 185.93256908 111.3671875 179.92578125 C110.12316162 178.97783691 110.12316162 178.97783691 108.85400391 178.01074219 C105.29493023 175.29887775 101.73576146 172.58713918 98.17578125 169.87646484 C93.33165235 166.1874334 88.49252593 162.49203786 83.65942383 158.78857422 C77.52642777 154.08905306 71.37146526 149.42261295 65.1796875 144.80078125 C59.63511036 140.65954454 54.16101353 136.44141916 48.73461914 132.14672852 C43.34093608 127.88421322 37.8762989 123.71732063 32.40478516 119.55541992 C28.65297831 116.69561819 24.9497586 113.79647834 21.3046875 110.80078125 C17.0254587 107.37445716 12.63723348 104.11504382 8.1796875 100.92578125 C7.51380615 100.43190918 6.8479248 99.93803711 6.16186523 99.42919922 C1.80379264 96.36841083 -1.14152569 95.11249825 -6.6328125 95.92578125 C-9.0747527 97.00177708 -9.0747527 97.00177708 -11.1953125 98.73828125 C-12.04738281 99.37894531 -12.89945313 100.01960938 -13.77734375 100.6796875 C-14.71964844 101.42089844 -15.66195312 102.16210938 -16.6328125 102.92578125 C-17.71976735 103.7685965 -18.8070204 104.61102729 -19.89453125 105.453125 C-23.49266413 108.25388347 -27.06320462 111.08882139 -30.6328125 113.92578125 C-32.92194808 115.74150247 -35.21353161 117.55406572 -37.5078125 119.36328125 C-38.08128418 119.81558105 -38.65475586 120.26788086 -39.24560547 120.73388672 C-43.61330503 124.16245221 -48.0504789 127.48999035 -52.5078125 130.80078125 C-58.78105683 135.46351268 -64.86781404 140.3180801 -70.90917969 145.27636719 C-75.73416616 149.22624522 -80.65407992 152.99486628 -85.66796875 156.703125 C-88.88971395 159.11837272 -92.04323433 161.60844059 -95.1953125 164.11328125 C-100.78219111 168.54699911 -106.49563824 172.78559712 -112.2578125 176.98828125 C-117.51783354 180.82807079 -122.67739945 184.69910541 -127.6328125 188.92578125 C-133.37045089 193.81964929 -139.41238046 198.23895024 -145.50170898 202.68359375 C-152.04681599 207.46867743 -158.43461191 212.41981147 -164.78271484 217.46142578 C-179.12673477 228.81474216 -193.63544165 239.95925559 -208.5078125 250.61328125 C-209.09723633 251.03577148 -209.68666016 251.45826172 -210.29394531 251.89355469 C-215.90325577 255.88306426 -219.73236657 256.93934823 -226.6328125 255.92578125 C-229.75916811 254.45049296 -232.08081189 252.23289291 -234.6328125 249.92578125 C-235.71582652 249.00436522 -236.80203709 248.08669916 -237.890625 247.171875 C-240.92802499 244.61183414 -243.93305965 242.01711775 -246.92724609 239.40673828 C-248.49315939 238.04704317 -250.07214519 236.70244156 -251.65234375 235.359375 C-252.97298828 234.21662109 -252.97298828 234.21662109 -254.3203125 233.05078125 C-255.08730469 232.39335938 -255.85429687 231.7359375 -256.64453125 231.05859375 C-259.97430153 227.4867773 -262.05664327 223.47028325 -262.2578125 218.55078125 C-262.02982658 213.83383114 -260.39015701 211.39182808 -257.125 208.07421875 C-252.22598708 203.85093175 -246.96428887 200.13643511 -241.69287109 196.39648438 C-232.62557639 189.92322255 -223.79876353 183.19996761 -215.35498047 175.93188477 C-211.18072707 172.34998518 -206.90201071 168.93594028 -202.49829102 165.63989258 C-199.74492601 163.57723851 -197.08973709 161.47643519 -194.5234375 159.18359375 C-186.60610248 152.28035038 -179.88330206 150.37975335 -169.546875 149.17480469 C-145.41882844 146.03569659 -123.18912509 130.88851941 -106.109375 114.35107422 C-104.61005235 112.90381139 -103.09104144 111.47940595 -101.5703125 110.0546875 C-84.8355361 94.13682577 -68.6082109 69.90975715 -64.94921875 46.75 C-63.67976755 41.38504949 -59.37179712 39.14080288 -55.0078125 36.23828125 C-53.27099683 35.02431775 -51.53666081 33.80679971 -49.8046875 32.5859375 C-48.49854492 31.67352295 -48.49854492 31.67352295 -47.16601562 30.74267578 C-43.39993571 28.04152247 -39.82554965 25.13136565 -36.2578125 22.17578125 C-29.48903027 16.607709 -22.64419397 11.18668287 -15.6328125 5.92578125 C-14.81167969 5.2709375 -13.99054688 4.61609375 -13.14453125 3.94140625 C-8.78210105 0.65639836 -5.50937089 -1.09615511 0 0 Z "
        fill="currentColor"
        transform="matrix(0.9999999999999999, 0, 0, 0.9999999999999999, 513.6328125, 345.07421874999994)" />
    <path
        d="M0 0 C21.31706611 7.74815604 42.65765717 29.27929612 56 47 C57.13501953 48.44632812 57.13501953 48.44632812 58.29296875 49.921875 C74.42404974 70.78149732 82.22011426 92.57168176 82.25 118.9375 C82.25133942 119.63152924 82.25267883 120.32555847 82.25405884 121.0406189 C82.24974234 131.33427703 81.72443135 141.0189057 79 151 C78.80664062 151.825 78.61328125 152.65 78.4140625 153.5 C73.36543833 172.90769809 63.1447143 191.39398879 51.22119141 207.3515625 C49.106972 210.20546283 47.05776926 213.10523401 45 216 C23.00793829 213.23062927 -3.62257346 183.31497232 -16.68066406 166.75097656 C-20.16962348 162.12055152 -23.55153501 157.26225649 -26 152 C-24.73113676 148.19341028 -23.46505212 147.82158056 -20.0625 145.8125 C-15.06162702 142.75459983 -10.57638589 139.37105177 -6.09375 135.6015625 C-4 134 -4 134 -1 133 C-0.67 132.01 -0.34 131.02 0 130 C0.66 130 1.32 130 2 130 C2.26554688 129.41992188 2.53109375 128.83984375 2.8046875 128.2421875 C4.04015481 125.92467692 5.44182863 124.13697694 7.125 122.125 C15.75182411 111.08482634 20.22825632 100.62382486 23 87 C23.1750708 86.36255859 23.3501416 85.72511719 23.53051758 85.06835938 C29.45010766 58.98891727 15.87093753 33.51457781 3.81079102 11.46313477 C3.31506592 10.54588623 2.81934082 9.6286377 2.30859375 8.68359375 C1.86314209 7.87462646 1.41769043 7.06565918 0.95874023 6.23217773 C0 4 0 4 0 0 Z "
        fill="currentColor"
        transform="matrix(0.9999999999999999, 0, 0, 0.9999999999999999, 669, 227)" />
    <path
        d="M0 0 C-1.50175772 5.24790061 -3.90690826 9.56918248 -6.625 14.25 C-14.37079135 27.9396789 -20.60456734 41.595862 -24 57 C-24.28617187 58.15822266 -24.28617187 58.15822266 -24.578125 59.33984375 C-27.91918064 80.4070557 -22.70651637 101.31240126 -10.50390625 118.64453125 C-8.1277866 121.87656252 -5.6047609 124.94957403 -3 128 C-2.45085937 128.65097656 -1.90171875 129.30195313 -1.3359375 129.97265625 C5.75770898 137.66653436 15.52928168 144.6221641 25 149 C23.50794907 153.29967366 21.26381679 156.83155142 18.625 160.5 C18.18800781 161.10875977 17.75101562 161.71751953 17.30078125 162.34472656 C12.38071441 169.04918384 6.78834867 175.04567034 1 181 C0.51370117 181.5067627 0.02740234 182.01352539 -0.47363281 182.53564453 C-6.40305568 188.70827424 -6.40305568 188.70827424 -9 191 C-9.66 191 -10.32 191 -11 191 C-11 191.66 -11 192.32 -11 193 C-13.27116927 194.93186942 -15.54530633 196.72778942 -17.9375 198.5 C-18.64737061 199.02811279 -19.35724121 199.55622559 -20.08862305 200.1003418 C-25.34040477 203.93648079 -30.73137155 207.47506862 -36.3125 210.8125 C-37.03493896 211.25078125 -37.75737793 211.6890625 -38.50170898 212.140625 C-40.28756319 213.17898655 -42.14025097 214.10066497 -44 215 C-47.96047859 213.67984047 -49.34103887 211.17160258 -51.625 207.875 C-52.06376465 207.24754883 -52.5025293 206.62009766 -52.95458984 205.97363281 C-75.63032865 173.1464036 -88.38516226 135.94517662 -81.97021484 95.68505859 C-77.59902378 73.04837132 -65.13333566 54.81699902 -50 38 C-49.05825508 36.93519527 -48.11683972 35.87009895 -47.17578125 34.8046875 C-15.8667403 -0.34492914 -15.8667403 -0.34492914 0 0 Z "
        fill="currentColor"
        transform="matrix(0.9999999999999999, 0, 0, 0.9999999999999999, 353.99999999999994, 228)" />
    <path
        d="M0 0 C2.05212402 -0.37473011 2.05212402 -0.37473011 4.63085938 -0.3742218 C6.09471069 -0.38474327 6.09471069 -0.38474327 7.58813477 -0.39547729 C8.66248779 -0.38783356 9.73684082 -0.38018982 10.84375 -0.37231445 C11.97224365 -0.37596512 13.1007373 -0.37961578 14.26342773 -0.38337708 C18.00910295 -0.39151045 21.75434934 -0.37784896 25.5 -0.36328125 C28.09309896 -0.36276298 30.68619831 -0.36327939 33.27929688 -0.36479187 C38.7201163 -0.36470202 44.1607774 -0.35458319 49.6015625 -0.33618164 C55.89660438 -0.3150131 62.19146386 -0.31150378 68.48653412 -0.3177436 C74.53605436 -0.32343359 80.58549335 -0.31769205 86.63500977 -0.30657005 C89.21231832 -0.30270988 91.7896324 -0.3015732 94.36694336 -0.3031559 C97.96348669 -0.30352511 101.55974875 -0.29094671 105.15625 -0.2746582 C106.23060303 -0.27713562 107.30495605 -0.27961304 108.41186523 -0.28216553 C109.38776611 -0.27508072 110.36366699 -0.26799591 111.36914062 -0.26069641 C112.64561462 -0.25761711 112.64561462 -0.25761711 113.94787598 -0.25447559 C116 0 116 0 118 2 C118.25168228 4.45817566 118.25168228 4.45817566 118.25396729 7.61791992 C118.25960693 8.81258881 118.26524658 10.00725769 118.27105713 11.23812866 C118.26700867 12.55560089 118.26296021 13.87307312 118.25878906 15.23046875 C118.26149795 16.62651757 118.26505831 18.02256495 118.26940918 19.41860962 C118.27854765 23.2160605 118.27498297 27.01340303 118.26865101 30.81085587 C118.26359853 34.77909901 118.26828036 38.74733268 118.27142334 42.71557617 C118.27506519 49.38038809 118.27025817 56.04515573 118.26074219 62.70996094 C118.2498572 70.4228085 118.25338263 78.13555034 118.264395 85.84839535 C118.27346166 92.46243414 118.2747562 99.07644105 118.26951766 105.69048405 C118.26639453 109.64429012 118.26599798 113.59804646 118.27259064 117.55184937 C118.27835448 121.26840557 118.27438499 124.98482504 118.26280212 128.70136642 C118.2588822 130.7215328 118.26484937 132.7417107 118.27105713 134.76187134 C118.26541748 135.95654022 118.25977783 137.15120911 118.25396729 138.38208008 C118.25321323 139.42479568 118.25245918 140.46751129 118.25168228 141.54182434 C118 144 118 144 116 146 C113.21850586 146.24291992 113.21850586 146.24291992 109.71484375 146.23046875 C108.46251953 146.22853516 107.21019531 146.22660156 105.91992188 146.22460938 C104.60572266 146.21236328 103.29152344 146.20011719 101.9375 146.1875 C99.96040039 146.1865332 99.96040039 146.1865332 97.94335938 146.18554688 C88.14009123 146.14009123 88.14009123 146.14009123 87 145 C86.90431424 143.51983606 86.87811732 142.03511727 86.87974548 140.55186462 C86.87768349 139.11098228 86.87768349 139.11098228 86.87557983 137.64099121 C86.88097275 136.04740784 86.88097275 136.04740784 86.88647461 134.42163086 C86.88632858 133.30957779 86.88618256 132.19752472 86.8860321 131.05177307 C86.88673179 127.35611049 86.8945268 123.66049759 86.90234375 119.96484375 C86.90420773 117.41036507 86.90563173 114.85588603 86.90663147 112.30140686 C86.91006656 106.2523829 86.91795736 100.20338045 86.92798096 94.15436512 C86.94023734 86.59444999 86.94572483 79.03453196 86.95117188 71.47460938 C86.9609228 57.98305889 86.98095311 44.49154768 87 31 C68.19 31 49.38 31 30 31 C30.02320313 39.13398437 30.04640625 47.26796875 30.0703125 55.6484375 C30.08052668 60.78906567 30.09015427 65.92968141 30.09765625 71.0703125 C30.1096306 79.23700571 30.12352792 87.40365457 30.15087891 95.5703125 C30.17290929 102.15143356 30.18455551 108.73251926 30.18975449 115.31367874 C30.19346141 117.8295937 30.20069966 120.34550592 30.21146011 122.8614006 C30.22589263 126.37429298 30.2279814 129.88698529 30.22705078 133.39990234 C30.23424133 134.44934525 30.24143188 135.49878815 30.24884033 136.58003235 C30.246091 137.53358109 30.24334167 138.48712982 30.24050903 139.46957397 C30.24235262 140.30103125 30.24419621 141.13248852 30.24609566 141.98914146 C30 144 30 144 28 146 C25.234375 146.25878906 25.234375 146.25878906 21.75 146.265625 C19.87828125 146.26949219 19.87828125 146.26949219 17.96875 146.2734375 C16.6590625 146.26570312 15.349375 146.25796875 14 146.25 C12.6903125 146.25773438 11.380625 146.26546875 10.03125 146.2734375 C8.7834375 146.27085937 7.535625 146.26828125 6.25 146.265625 C4.52523438 146.26224121 4.52523438 146.26224121 2.765625 146.25878906 C0 146 0 146 -2 144 C-2.25168228 141.56023502 -2.25168228 141.56023502 -2.25396729 138.42677307 C-2.25960693 137.2419635 -2.26524658 136.05715393 -2.27105713 134.83644104 C-2.26700867 133.52989059 -2.26296021 132.22334015 -2.25878906 130.87719727 C-2.26149799 129.49262304 -2.26505837 128.10805026 -2.26940918 126.72348022 C-2.27854803 122.95695266 -2.27498259 119.19053433 -2.26865101 115.42400479 C-2.26359772 111.48692604 -2.26828068 107.54985682 -2.27142334 103.61277771 C-2.27506538 96.99924028 -2.27025812 90.38574746 -2.26074219 83.7722168 C-2.24986166 76.12187291 -2.25337931 68.47163566 -2.264395 60.82129437 C-2.27346648 54.25904411 -2.2747537 47.69682599 -2.26951766 41.13457149 C-2.26639661 37.21259147 -2.2659922 33.29066159 -2.27259064 29.36868477 C-2.27836131 25.68085228 -2.27437238 21.99315741 -2.26280212 18.30533981 C-2.25888886 16.30325765 -2.26484389 14.30116387 -2.27105713 12.29908752 C-2.26541748 11.11145813 -2.25977783 9.92382874 -2.25396729 8.70021057 C-2.25321323 7.6657911 -2.25245918 6.63137163 -2.25168228 5.56560612 C-2 3 -2 3 0 0 Z "
        fill="currentColor"
        transform="matrix(0.9999999999999999, 0, 0, 0.9999999999999999, 452.99999999999994, 649)" />
    <path
        d="M0 0 C0.99 0 1.98 0 3 0 C3.07000774 27.19838452 3.12294774 54.39675559 3.15543652 81.59521198 C3.17092098 94.2232546 3.19204063 106.85124131 3.22631836 119.47924805 C3.2561724 130.48278136 3.2755635 141.4862742 3.28226548 152.48984689 C3.28618452 158.31890286 3.29542752 164.14784301 3.31719017 169.97686195 C3.33749223 175.45887638 3.34384655 180.94072683 3.33932304 186.42277527 C3.34015107 188.43883339 3.34615394 190.45489677 3.35761642 192.47092247 C3.37246229 195.21574843 3.36898267 197.95994887 3.36076355 200.70478821 C3.36950207 201.50925788 3.3782406 202.31372755 3.38724393 203.14257509 C3.34382091 208.47856052 3.34382091 208.47856052 1.68509388 210.99418926 C-1.14720844 212.68475388 -4.20364315 212.426343 -7.40625 212.3984375 C-8.12735962 212.40130768 -8.84846924 212.40417786 -9.59143066 212.40713501 C-11.11450995 212.40917452 -12.6376155 212.40365247 -14.16064453 212.39111328 C-16.49180678 212.37505643 -18.82123542 212.3909641 -21.15234375 212.41015625 C-22.63281633 212.4081738 -24.11328782 212.40433007 -25.59375 212.3984375 C-26.2906897 212.40451019 -26.98762939 212.41058289 -27.70568848 212.4168396 C-32.45757695 212.34778941 -32.45757695 212.34778941 -34.68299103 210.92090416 C-36.70750909 207.96807298 -36.38431087 205.42719206 -36.39440918 201.87734985 C-36.40050028 201.14735854 -36.40659139 200.41736722 -36.41286707 199.66525495 C-36.42955295 197.21238938 -36.42471344 194.76003976 -36.41992188 192.30712891 C-36.42725904 190.55126911 -36.43584423 188.79541414 -36.44558716 187.03956604 C-36.46785046 182.26472434 -36.4707314 177.49005496 -36.46883965 172.71516848 C-36.46872015 168.73149239 -36.47727572 164.74785309 -36.48561716 160.76418722 C-36.50486903 151.36652966 -36.50772876 141.96896094 -36.50097656 132.57128906 C-36.49433588 122.87193774 -36.51719714 113.17296672 -36.55429029 103.47369254 C-36.58496616 95.15088283 -36.59634957 86.82819557 -36.59245348 78.50533044 C-36.59038358 73.53244545 -36.59590202 68.55985624 -36.62034607 63.58702469 C-36.64257547 58.90998324 -36.64076726 54.23356069 -36.62041855 49.55651665 C-36.6170016 47.83962335 -36.62212706 46.12268871 -36.63640213 44.40585136 C-36.65454586 42.06204841 -36.64188486 39.72035593 -36.62145996 37.37661743 C-36.62217247 36.0651153 -36.62288498 34.75361317 -36.62361908 33.40236855 C-35.84319766 29.14451088 -34.27923584 27.72355816 -31 25 C-30.39607422 24.47124268 -29.79214844 23.94248535 -29.16992188 23.39770508 C-28.60853516 22.94290771 -28.04714844 22.48811035 -27.46875 22.01953125 C-26.8288916 21.49979736 -26.1890332 20.98006348 -25.52978516 20.44458008 C-24.5250415 19.63670044 -24.5250415 19.63670044 -23.5 18.8125 C-22.80310059 18.24877686 -22.10620117 17.68505371 -21.38818359 17.10424805 C-15.82101868 12.61821516 -10.1739536 8.24477127 -4.4765625 3.92578125 C-1.99758622 2.08034829 -1.99758622 2.08034829 0 0 Z "
        fill="currentColor"
        transform="matrix(0.9999999999999999, 0, 0, 0.9999999999999999, 375.99999999999994, 583)" />
    <path
        d="M0 0 C3.13495704 0.70930232 4.95942897 1.51250222 7.43359375 3.58984375 C8.07643311 4.12222656 8.71927246 4.65460937 9.3815918 5.203125 C10.0600415 5.77546875 10.73849121 6.3478125 11.4375 6.9375 C12.8685441 8.1252027 14.30085405 9.31138172 15.734375 10.49609375 C16.44916016 11.0876123 17.16394531 11.67913086 17.90039062 12.28857422 C21.92286686 15.56736008 26.07882709 18.66885112 30.23046875 21.78125 C37.78883512 27.83647158 37.78883512 27.83647158 38.62082577 32.42077923 C38.6442914 33.7540847 38.6404438 35.0880464 38.61473083 36.42131042 C38.62041409 37.15921084 38.62609735 37.89711126 38.63195282 38.6573723 C38.64485261 41.12526737 38.6220713 43.5915211 38.59936523 46.05932617 C38.60122935 47.83019861 38.6052661 49.60106989 38.61131287 51.37193298 C38.6212916 56.17762801 38.60011262 60.98273372 38.57283282 65.78834319 C38.54901797 70.81358065 38.55194791 75.83880613 38.55152893 80.86408997 C38.5469006 89.30003858 38.52325342 97.73576151 38.48706055 106.17163086 C38.44528638 115.93459092 38.42774336 125.69734787 38.4244408 135.46039218 C38.42084599 145.84466415 38.40198091 156.2288627 38.37732053 166.6131041 C38.37108272 169.61076973 38.36745226 172.60842978 38.36428642 175.60610008 C38.35840052 180.30846635 38.3421286 185.01068644 38.31768227 189.71299171 C38.3102209 191.44241838 38.30616897 193.17186346 38.30570221 194.90130615 C38.30445114 197.25423669 38.29095887 199.60677727 38.27415466 201.9596405 C38.26950416 203.27868472 38.26485365 204.59772894 38.26006222 205.95674419 C38 209 38 209 36 211 C33.44249547 211.1995697 30.99561859 211.27986826 28.4375 211.265625 C27.69040771 211.26753845 26.94331543 211.2694519 26.17358398 211.27142334 C24.59325829 211.27278498 23.01292142 211.26909 21.43261719 211.26074219 C19.00951078 211.250042 16.58714577 211.26063779 14.1640625 211.2734375 C12.63020669 211.2721159 11.09635135 211.2695535 9.5625 211.265625 C8.83538818 211.26967346 8.10827637 211.27372192 7.35913086 211.27789307 C2.22992361 211.22992361 2.22992361 211.22992361 0 209 C-0.19338427 206.24171002 -0.26041778 203.58419929 -0.24050903 200.82504272 C-0.24221788 199.96987143 -0.24392673 199.11470014 -0.24568737 198.23361456 C-0.24899682 195.35146013 -0.23795471 192.46953554 -0.22705078 189.58740234 C-0.22648698 187.52802028 -0.22680261 185.46863781 -0.22793579 183.40925598 C-0.22851152 177.80414634 -0.21672161 172.19912164 -0.20278788 166.59403181 C-0.19031718 160.74169815 -0.18911292 154.88936272 -0.18673706 149.03701782 C-0.1805115 137.94832621 -0.16408616 126.85967385 -0.14403808 115.77099955 C-0.1217125 103.1496752 -0.11069407 90.52834901 -0.10064721 77.90700984 C-0.07972084 51.93798476 -0.04452402 25.96899458 0 0 Z "
        fill="currentColor"
        transform="matrix(0.9999999999999999, 0, 0, 0.9999999999999999, 644, 584)" />
    <path
        d="M0 0 C5.52675903 0.63854985 10.62367351 1.93693354 15.9375 3.5625 C16.71673828 3.79646484 17.49597656 4.03042969 18.29882812 4.27148438 C20.20057187 4.84317421 22.10048226 5.42095691 24 6 C23.49182907 11.05091107 21.75956081 14.74973214 19.125 19 C18.72498779 19.65226562 18.32497559 20.30453125 17.9128418 20.9765625 C0.2857296 49.09850781 -25.63340731 71.2023369 -53.34570312 88.93945312 C-54.91012937 89.94238518 -56.4632614 90.96287149 -58.015625 91.984375 C-58.89734375 92.54640625 -59.7790625 93.1084375 -60.6875 93.6875 C-61.43386719 94.16574219 -62.18023437 94.64398438 -62.94921875 95.13671875 C-65 96 -65 96 -66.97265625 95.9921875 C-70.06332525 94.47960575 -71.64767252 92.12724252 -73.75 89.4375 C-74.54921875 88.42558594 -75.3484375 87.41367187 -76.171875 86.37109375 C-76.77515625 85.58863281 -77.3784375 84.80617188 -78 84 C-76.49634584 80.00784218 -74.25084852 78.59324345 -70.6875 76.375 C-60.89165044 70.05169112 -51.83858793 62.98814152 -43.26171875 55.07421875 C-41.21675333 53.19878414 -39.12380525 51.40967467 -37 49.625 C-21.53087956 36.07789452 -8.80889108 18.46118663 0 0 Z "
        fill="currentColor"
        transform="matrix(0.9999999999999999, 0, 0, 0.9999999999999999, 399.99999999999994, 376.99999999999994)" />
    <path
        d="M0 0 C1.04269043 -0.00786278 1.04269043 -0.00786278 2.10644531 -0.0158844 C3.57225207 -0.02229154 5.03811033 -0.02098447 6.50390625 -0.01245117 C8.74311987 -0.00393242 10.97978772 -0.03272793 13.21875 -0.06445312 C14.64583257 -0.06606516 16.07291965 -0.06548756 17.5 -0.0625 C18.79421875 -0.06435303 20.0884375 -0.06620605 21.421875 -0.06811523 C25.39714271 0.53114937 26.31249194 1.31072514 28.75 4.43359375 C29.25793457 7.16552734 29.25793457 7.16552734 29.26757812 10.33203125 C29.28018677 11.52006348 29.29279541 12.7080957 29.30578613 13.93212891 C29.29768921 15.2113623 29.28959229 16.4905957 29.28125 17.80859375 C29.2850769 19.12520996 29.28890381 20.44182617 29.29284668 21.79833984 C29.29873724 24.58254809 29.29019414 27.36624224 29.27148438 30.15039062 C29.24869376 33.71508708 29.2618194 37.27857893 29.28577423 40.8432312 C29.3037233 44.24844805 29.29114777 47.65334269 29.28125 51.05859375 C29.28934692 52.33782715 29.29744385 53.61706055 29.30578613 54.93505859 C29.29317749 56.12309082 29.28056885 57.31112305 29.26757812 58.53515625 C29.26280457 60.10257568 29.26280457 60.10257568 29.25793457 61.70166016 C28.61795617 65.14379342 27.50435741 66.32958977 24.75 68.43359375 C21.40600586 68.93530273 21.40600586 68.93530273 17.46484375 68.9296875 C16.76734512 68.93114273 16.0698465 68.93259796 15.35121155 68.93409729 C13.88115244 68.93244164 12.4110754 68.92091752 10.94116211 68.90014648 C8.69114685 68.87114076 6.44348197 68.87955175 4.19335938 68.89257812 C2.76300939 68.88634167 1.33266683 68.87795145 -0.09765625 68.8671875 C-1.39711182 68.85743896 -2.69656738 68.84769043 -4.03540039 68.83764648 C-7.25 68.43359375 -7.25 68.43359375 -9.13452148 67.03149414 C-11.37369172 63.82392811 -11.39064952 61.63262666 -11.42700195 57.74633789 C-11.43983719 56.55492691 -11.45267242 55.36351593 -11.46589661 54.13600159 C-11.47328354 52.84330856 -11.48067047 51.55061554 -11.48828125 50.21875 C-11.49235678 49.56237486 -11.4964323 48.90599972 -11.50063133 48.22973442 C-11.52148389 44.75740753 -11.53579058 41.28512009 -11.54516602 37.81274414 C-11.55624528 34.22336714 -11.59066363 30.63460759 -11.63033772 27.04544926 C-11.65645425 24.28737723 -11.66485321 21.52945366 -11.66844749 18.77126884 C-11.67569692 16.80413374 -11.70215389 14.83709994 -11.72883606 12.87013245 C-11.72591049 11.67556931 -11.72298492 10.48100616 -11.7199707 9.25024414 C-11.72583694 8.19704483 -11.73170319 7.14384552 -11.73774719 6.05873108 C-11.25 3.43359375 -11.25 3.43359375 -9.42863464 1.5953064 C-6.25624866 -0.09630396 -3.57857531 0.02695516 0 0 Z "
        fill="currentColor"
        transform="matrix(0.9999999999999999, 0, 0, 0.9999999999999999, 471.24999999999994, 536.56640625)" />
    <path
        d="M0 0 C1.01151878 -0.00074776 1.01151878 -0.00074776 2.04347229 -0.00151062 C3.46822051 0.00082731 4.89297306 0.01053947 6.31762695 0.02709961 C8.49272835 0.05066017 10.66660055 0.04766308 12.84179688 0.04101562 C24.73385744 0.08887567 24.73385744 0.08887567 28.06640625 2.36328125 C29.39441607 5.01930088 29.21550615 7.06032316 29.2434082 10.03466797 C29.26266106 11.8169429 29.26266106 11.8169429 29.28230286 13.63522339 C29.28968979 14.92477936 29.29707672 16.21433533 29.3046875 17.54296875 C29.31275925 18.86241486 29.32083099 20.18186096 29.32914734 21.54129028 C29.34417313 24.33725863 29.35401205 27.13320157 29.36157227 29.92919922 C29.37264079 33.50951107 29.40704592 37.08920208 29.44674397 40.66929436 C29.47289137 43.42311761 29.48126231 46.17679244 29.48485374 48.93072891 C29.49209065 50.89172459 29.51853664 52.85261887 29.54524231 54.81344604 C29.54231674 56.00793365 29.53939117 57.20242126 29.53637695 58.43310547 C29.54224319 59.48408417 29.54810944 60.53506287 29.55415344 61.6178894 C28.93896916 65.08058884 27.83431121 66.25307441 25.06640625 68.36328125 C21.72241211 68.88085938 21.72241211 68.88085938 17.78125 68.89453125 C16.73500206 68.90027161 16.73500206 68.90027161 15.6676178 68.90612793 C14.19758658 68.90884273 12.7275067 68.90151155 11.25756836 68.88476562 C9.00720814 68.86331273 6.760028 68.88459347 4.50976562 68.91015625 C3.07942004 68.90751352 1.64907644 68.90238968 0.21875 68.89453125 C-1.08070557 68.89001953 -2.38016113 68.88550781 -3.71899414 68.88085938 C-6.93359375 68.36328125 -6.93359375 68.36328125 -8.61024475 66.70631409 C-10.28410599 63.74268782 -10.31416934 61.75424937 -10.32177734 58.35717773 C-10.33123383 57.14589706 -10.34069031 55.93461639 -10.35043335 54.68663025 C-10.34436066 53.38238602 -10.33828796 52.07814178 -10.33203125 50.734375 C-10.33405291 49.37964216 -10.33696512 48.02491039 -10.34072876 46.67018127 C-10.34514633 43.83478404 -10.33873872 40.99967081 -10.32470703 38.16430664 C-10.30759863 34.53019633 -10.31746962 30.89674991 -10.33542442 27.26266384 C-10.34626393 24.46681208 -10.34281555 21.67111781 -10.33504105 18.87526131 C-10.33206776 16.88383172 -10.34117551 14.892396 -10.35043335 12.90098572 C-10.34097687 11.69285721 -10.33152039 10.4847287 -10.32177734 9.23999023 C-10.31939056 8.17505844 -10.31700378 7.11012665 -10.31454468 6.01292419 C-9.93359375 3.36328125 -9.93359375 3.36328125 -8.60450745 1.51925659 C-5.87281819 -0.37058693 -3.26712039 -0.00774447 0 0 Z "
        fill="currentColor"
        transform="matrix(0.9999999999999999, 0, 0, 0.9999999999999999, 532.93359375, 536.63671875)" />
    <path
        d="M0 0 C0.54527344 1.01578125 1.09054687 2.0315625 1.65234375 3.078125 C6.50029398 11.98015188 11.65771389 20.06934594 18 28 C18.63808594 28.84175781 19.27617188 29.68351562 19.93359375 30.55078125 C33.49689884 47.97420825 50.04738104 62.01789444 68.53125 73.9453125 C69.23419189 74.40099609 69.93713379 74.85667969 70.66137695 75.32617188 C71.97555169 76.16861188 73.2992453 76.99645242 74.63354492 77.80664062 C76.38671875 78.9140625 76.38671875 78.9140625 79 81 C79 85 79 85 76.59375 87.796875 C75.57248913 88.79160961 74.5407803 89.77570689 73.5 90.75 C72.97535156 91.25660156 72.45070313 91.76320313 71.91015625 92.28515625 C70.61558637 93.53265087 69.3089224 94.76757307 68 96 C38.7800367 82.24570057 11.72464177 58.51102191 -8 33 C-8.76054688 32.04480469 -9.52109375 31.08960938 -10.3046875 30.10546875 C-24 12.51367845 -24 12.51367845 -24 6 C-20.56435978 4.99353274 -17.12620371 3.9959455 -13.6875 3 C-12.71103516 2.71382813 -11.73457031 2.42765625 -10.72851562 2.1328125 C-9.79072266 1.86210937 -8.85292969 1.59140625 -7.88671875 1.3125 C-7.02264404 1.06113281 -6.15856934 0.80976563 -5.26831055 0.55078125 C-3 0 -3 0 0 0 Z "
        fill="currentColor"
        transform="matrix(0.9999999999999999, 0, 0, 0.9999999999999999, 621, 376.99999999999994)" />
    <path
        d="M0 0 C0.33 0.66 0.66 1.32 1 2 C-3.11475164 6.95056056 -7.38076008 11.39828455 -12.30078125 15.5546875 C-14.09618266 17.04252706 -14.09618266 17.04252706 -16 19 C-16.33 17.68 -16.66 16.36 -17 15 C-15.5665848 13.84906075 -14.12811091 12.70441965 -12.6875 11.5625 C-11.48673828 10.60537109 -11.48673828 10.60537109 -10.26171875 9.62890625 C-8 8 -8 8 -5 7 C-4.67 6.01 -4.34 5.02 -4 4 C-3.34 4 -2.68 4 -2 4 C-1.34 2.68 -0.68 1.36 0 0 Z "
        fill="currentColor"
        transform="matrix(0.9999999999999999, 0, 0, 0.9999999999999999, 673, 352.99999999999994)" />
    <path
        d="M0 0 C0.99 0.33 1.98 0.66 3 1 C-1.38130557 5.58146674 -5.54843278 9.72905967 -11 13 C-9.46356148 9.31930113 -7.21849055 7.01224796 -4.375 4.25 C-3.55773437 3.45078125 -2.74046875 2.6515625 -1.8984375 1.828125 C-0.95871094 0.92320312 -0.95871094 0.92320312 0 0 Z "
        fill="currentColor"
        transform="matrix(0.9999999999999999, 0, 0, 0.9999999999999999, 317.99999999999994, 250.99999999999994)" />
    <path
        d="M0 0 C0.66 0 1.32 0 2 0 C1.39665691 3.70503641 -0.22474237 5.85968148 -2.5625 8.75 C-3.52349609 9.94882812 -3.52349609 9.94882812 -4.50390625 11.171875 C-4.99761719 11.77515625 -5.49132812 12.3784375 -6 13 C-6.66 12.67 -7.32 12.34 -8 12 C-6.71656721 9.99426318 -5.4239631 7.99563881 -4.125 6 C-3.76019531 5.42765625 -3.39539063 4.8553125 -3.01953125 4.265625 C-2.06525233 2.80818084 -1.03722413 1.39962775 0 0 Z "
        fill="currentColor"
        transform="matrix(0.9999999999999999, 0, 0, 0.9999999999999999, 392.99999999999994, 389.99999999999994)" />
</svg>